%TF.GenerationSoftware,KiCad,Pcbnew,9.0.9-9.0.9~ubuntu24.04.1*%
%TF.CreationDate,2026-08-17T17:57:29+07:00*%
%TF.ProjectId,door,646f6f72-2e6b-4696-9361-645f70636258,rev?*%
%TF.SameCoordinates,Original*%
%TF.FileFunction,Other,User*%
%FSLAX46Y46*%
G04 Gerber Fmt 4.6, Leading zero omitted, Abs format (unit mm)*
G04 Created by KiCad (PCBNEW 9.0.9-9.0.9~ubuntu24.04.1) date 2026-08-17 17:57:29*
%MOMM*%
%LPD*%
G01*
G04 APERTURE LIST*
%ADD10C,0.100000*%
G04 APERTURE END LIST*
D10*
X-80101449Y-17512333D02*
X-78166211Y-17512333D01*
X-79133830Y-18479952D02*
X-79133830Y-16544714D01*
X-79085449Y-35292333D02*
X-77150211Y-35292333D01*
X-78117830Y-36259952D02*
X-78117830Y-34324714D01*
X-71465449Y-2780333D02*
X-69530211Y-2780333D01*
X-70497830Y-3747952D02*
X-70497830Y-1812714D01*
X-70449449Y-50024333D02*
X-68514211Y-50024333D01*
X-69481830Y-50991952D02*
X-69481830Y-49056714D01*
X-66385449Y-3747952D02*
X-66385449Y-1207952D01*
X-64934020Y-3747952D02*
X-66022591Y-2296523D01*
X-64934020Y-1207952D02*
X-66385449Y-2659380D01*
X-63845449Y-2054619D02*
X-63845449Y-3747952D01*
X-63845449Y-2296523D02*
X-63724496Y-2175571D01*
X-63724496Y-2175571D02*
X-63482591Y-2054619D01*
X-63482591Y-2054619D02*
X-63119734Y-2054619D01*
X-63119734Y-2054619D02*
X-62877830Y-2175571D01*
X-62877830Y-2175571D02*
X-62756877Y-2417476D01*
X-62756877Y-2417476D02*
X-62756877Y-3747952D01*
X-64038972Y-48572904D02*
X-64280877Y-48451952D01*
X-64280877Y-48451952D02*
X-64643734Y-48451952D01*
X-64643734Y-48451952D02*
X-65006591Y-48572904D01*
X-65006591Y-48572904D02*
X-65248496Y-48814809D01*
X-65248496Y-48814809D02*
X-65369449Y-49056714D01*
X-65369449Y-49056714D02*
X-65490401Y-49540523D01*
X-65490401Y-49540523D02*
X-65490401Y-49903380D01*
X-65490401Y-49903380D02*
X-65369449Y-50387190D01*
X-65369449Y-50387190D02*
X-65248496Y-50629095D01*
X-65248496Y-50629095D02*
X-65006591Y-50871000D01*
X-65006591Y-50871000D02*
X-64643734Y-50991952D01*
X-64643734Y-50991952D02*
X-64401830Y-50991952D01*
X-64401830Y-50991952D02*
X-64038972Y-50871000D01*
X-64038972Y-50871000D02*
X-63918020Y-50750047D01*
X-63918020Y-50750047D02*
X-63918020Y-49903380D01*
X-63918020Y-49903380D02*
X-64401830Y-49903380D01*
X-57870401Y-3022238D02*
X-56660877Y-3022238D01*
X-58112306Y-3747952D02*
X-57265639Y-1207952D01*
X-57265639Y-1207952D02*
X-56418972Y-3747952D01*
X-57870401Y-50871000D02*
X-57507544Y-50991952D01*
X-57507544Y-50991952D02*
X-56902782Y-50991952D01*
X-56902782Y-50991952D02*
X-56660877Y-50871000D01*
X-56660877Y-50871000D02*
X-56539925Y-50750047D01*
X-56539925Y-50750047D02*
X-56418972Y-50508142D01*
X-56418972Y-50508142D02*
X-56418972Y-50266238D01*
X-56418972Y-50266238D02*
X-56539925Y-50024333D01*
X-56539925Y-50024333D02*
X-56660877Y-49903380D01*
X-56660877Y-49903380D02*
X-56902782Y-49782428D01*
X-56902782Y-49782428D02*
X-57386591Y-49661476D01*
X-57386591Y-49661476D02*
X-57628496Y-49540523D01*
X-57628496Y-49540523D02*
X-57749449Y-49419571D01*
X-57749449Y-49419571D02*
X-57870401Y-49177666D01*
X-57870401Y-49177666D02*
X-57870401Y-48935761D01*
X-57870401Y-48935761D02*
X-57749449Y-48693857D01*
X-57749449Y-48693857D02*
X-57628496Y-48572904D01*
X-57628496Y-48572904D02*
X-57386591Y-48451952D01*
X-57386591Y-48451952D02*
X-56781830Y-48451952D01*
X-56781830Y-48451952D02*
X-56418972Y-48572904D01*
X-52669449Y-50024333D02*
X-50734211Y-50024333D01*
X-51701830Y-50991952D02*
X-51701830Y-49056714D01*
X-52161449Y-3747952D02*
X-52161449Y-1207952D01*
X-50710020Y-3747952D02*
X-51798591Y-2296523D01*
X-50710020Y-1207952D02*
X-52161449Y-2659380D01*
X-46258972Y-48572904D02*
X-46500877Y-48451952D01*
X-46500877Y-48451952D02*
X-46863734Y-48451952D01*
X-46863734Y-48451952D02*
X-47226591Y-48572904D01*
X-47226591Y-48572904D02*
X-47468496Y-48814809D01*
X-47468496Y-48814809D02*
X-47589449Y-49056714D01*
X-47589449Y-49056714D02*
X-47710401Y-49540523D01*
X-47710401Y-49540523D02*
X-47710401Y-49903380D01*
X-47710401Y-49903380D02*
X-47589449Y-50387190D01*
X-47589449Y-50387190D02*
X-47468496Y-50629095D01*
X-47468496Y-50629095D02*
X-47226591Y-50871000D01*
X-47226591Y-50871000D02*
X-46863734Y-50991952D01*
X-46863734Y-50991952D02*
X-46621830Y-50991952D01*
X-46621830Y-50991952D02*
X-46258972Y-50871000D01*
X-46258972Y-50871000D02*
X-46138020Y-50750047D01*
X-46138020Y-50750047D02*
X-46138020Y-49903380D01*
X-46138020Y-49903380D02*
X-46621830Y-49903380D01*
X-40646782Y-49661476D02*
X-41493449Y-49661476D01*
X-41493449Y-50991952D02*
X-41493449Y-48451952D01*
X-41493449Y-48451952D02*
X-40283925Y-48451952D01*
X-39437258Y-50871000D02*
X-39195353Y-50991952D01*
X-39195353Y-50991952D02*
X-38711544Y-50991952D01*
X-38711544Y-50991952D02*
X-38469639Y-50871000D01*
X-38469639Y-50871000D02*
X-38348687Y-50629095D01*
X-38348687Y-50629095D02*
X-38348687Y-50508142D01*
X-38348687Y-50508142D02*
X-38469639Y-50266238D01*
X-38469639Y-50266238D02*
X-38711544Y-50145285D01*
X-38711544Y-50145285D02*
X-39074401Y-50145285D01*
X-39074401Y-50145285D02*
X-39316306Y-50024333D01*
X-39316306Y-50024333D02*
X-39437258Y-49782428D01*
X-39437258Y-49782428D02*
X-39437258Y-49661476D01*
X-39437258Y-49661476D02*
X-39316306Y-49419571D01*
X-39316306Y-49419571D02*
X-39074401Y-49298619D01*
X-39074401Y-49298619D02*
X-38711544Y-49298619D01*
X-38711544Y-49298619D02*
X-38469639Y-49419571D01*
X-36534401Y-50266238D02*
X-35324877Y-50266238D01*
X-36776306Y-50991952D02*
X-35929639Y-48451952D01*
X-35929639Y-48451952D02*
X-35082972Y-50991952D01*
X-34357258Y-50871000D02*
X-34115353Y-50991952D01*
X-34115353Y-50991952D02*
X-33631544Y-50991952D01*
X-33631544Y-50991952D02*
X-33389639Y-50871000D01*
X-33389639Y-50871000D02*
X-33268687Y-50629095D01*
X-33268687Y-50629095D02*
X-33268687Y-50508142D01*
X-33268687Y-50508142D02*
X-33389639Y-50266238D01*
X-33389639Y-50266238D02*
X-33631544Y-50145285D01*
X-33631544Y-50145285D02*
X-33994401Y-50145285D01*
X-33994401Y-50145285D02*
X-34236306Y-50024333D01*
X-34236306Y-50024333D02*
X-34357258Y-49782428D01*
X-34357258Y-49782428D02*
X-34357258Y-49661476D01*
X-34357258Y-49661476D02*
X-34236306Y-49419571D01*
X-34236306Y-49419571D02*
X-33994401Y-49298619D01*
X-33994401Y-49298619D02*
X-33631544Y-49298619D01*
X-33631544Y-49298619D02*
X-33389639Y-49419571D01*
X-29809449Y-50991952D02*
X-29809449Y-48451952D01*
X-29809449Y-48451952D02*
X-28358020Y-50991952D01*
X-28358020Y-50991952D02*
X-28358020Y-48451952D01*
X-26785639Y-50991952D02*
X-27027544Y-50871000D01*
X-27027544Y-50871000D02*
X-27148497Y-50750047D01*
X-27148497Y-50750047D02*
X-27269449Y-50508142D01*
X-27269449Y-50508142D02*
X-27269449Y-49782428D01*
X-27269449Y-49782428D02*
X-27148497Y-49540523D01*
X-27148497Y-49540523D02*
X-27027544Y-49419571D01*
X-27027544Y-49419571D02*
X-26785639Y-49298619D01*
X-26785639Y-49298619D02*
X-26422782Y-49298619D01*
X-26422782Y-49298619D02*
X-26180878Y-49419571D01*
X-26180878Y-49419571D02*
X-26059925Y-49540523D01*
X-26059925Y-49540523D02*
X-25938973Y-49782428D01*
X-25938973Y-49782428D02*
X-25938973Y-50508142D01*
X-25938973Y-50508142D02*
X-26059925Y-50750047D01*
X-26059925Y-50750047D02*
X-26180878Y-50871000D01*
X-26180878Y-50871000D02*
X-26422782Y-50991952D01*
X-26422782Y-50991952D02*
X-26785639Y-50991952D01*
X-21681449Y-50991952D02*
X-21681449Y-48451952D01*
X-21681449Y-49661476D02*
X-20230020Y-49661476D01*
X-20230020Y-50991952D02*
X-20230020Y-48451952D01*
X-19141449Y-50871000D02*
X-18899544Y-50991952D01*
X-18899544Y-50991952D02*
X-18415735Y-50991952D01*
X-18415735Y-50991952D02*
X-18173830Y-50871000D01*
X-18173830Y-50871000D02*
X-18052878Y-50629095D01*
X-18052878Y-50629095D02*
X-18052878Y-50508142D01*
X-18052878Y-50508142D02*
X-18173830Y-50266238D01*
X-18173830Y-50266238D02*
X-18415735Y-50145285D01*
X-18415735Y-50145285D02*
X-18778592Y-50145285D01*
X-18778592Y-50145285D02*
X-19020497Y-50024333D01*
X-19020497Y-50024333D02*
X-19141449Y-49782428D01*
X-19141449Y-49782428D02*
X-19141449Y-49661476D01*
X-19141449Y-49661476D02*
X-19020497Y-49419571D01*
X-19020497Y-49419571D02*
X-18778592Y-49298619D01*
X-18778592Y-49298619D02*
X-18415735Y-49298619D01*
X-18415735Y-49298619D02*
X-18173830Y-49419571D01*
X-14762972Y-48572904D02*
X-15004877Y-48451952D01*
X-15004877Y-48451952D02*
X-15367734Y-48451952D01*
X-15367734Y-48451952D02*
X-15730591Y-48572904D01*
X-15730591Y-48572904D02*
X-15972496Y-48814809D01*
X-15972496Y-48814809D02*
X-16093449Y-49056714D01*
X-16093449Y-49056714D02*
X-16214401Y-49540523D01*
X-16214401Y-49540523D02*
X-16214401Y-49903380D01*
X-16214401Y-49903380D02*
X-16093449Y-50387190D01*
X-16093449Y-50387190D02*
X-15972496Y-50629095D01*
X-15972496Y-50629095D02*
X-15730591Y-50871000D01*
X-15730591Y-50871000D02*
X-15367734Y-50991952D01*
X-15367734Y-50991952D02*
X-15125830Y-50991952D01*
X-15125830Y-50991952D02*
X-14762972Y-50871000D01*
X-14762972Y-50871000D02*
X-14642020Y-50750047D01*
X-14642020Y-50750047D02*
X-14642020Y-49903380D01*
X-14642020Y-49903380D02*
X-15125830Y-49903380D01*
X-11013449Y-50024333D02*
X-9078211Y-50024333D01*
X-10045830Y-50991952D02*
X-10045830Y-49056714D01*
X-3901449Y-35292333D02*
X-1966211Y-35292333D01*
X-2933830Y-36259952D02*
X-2933830Y-34324714D01*
X-78617476Y-21837217D02*
X-78738428Y-22200074D01*
X-78738428Y-22200074D02*
X-78859380Y-22321027D01*
X-78859380Y-22321027D02*
X-79101285Y-22441979D01*
X-79101285Y-22441979D02*
X-79464142Y-22441979D01*
X-79464142Y-22441979D02*
X-79706047Y-22321027D01*
X-79706047Y-22321027D02*
X-79827000Y-22200074D01*
X-79827000Y-22200074D02*
X-79947952Y-21958169D01*
X-79947952Y-21958169D02*
X-79947952Y-20990550D01*
X-79947952Y-20990550D02*
X-77407952Y-20990550D01*
X-77407952Y-20990550D02*
X-77407952Y-21837217D01*
X-77407952Y-21837217D02*
X-77528904Y-22079122D01*
X-77528904Y-22079122D02*
X-77649857Y-22200074D01*
X-77649857Y-22200074D02*
X-77891761Y-22321027D01*
X-77891761Y-22321027D02*
X-78133666Y-22321027D01*
X-78133666Y-22321027D02*
X-78375571Y-22200074D01*
X-78375571Y-22200074D02*
X-78496523Y-22079122D01*
X-78496523Y-22079122D02*
X-78617476Y-21837217D01*
X-78617476Y-21837217D02*
X-78617476Y-20990550D01*
X-78254619Y-23288646D02*
X-78254619Y-24619122D01*
X-78254619Y-24619122D02*
X-79947952Y-23288646D01*
X-79947952Y-23288646D02*
X-79947952Y-24619122D01*
M02*
