M48
; DRILL file {KiCad 9.0.9-9.0.9~ubuntu24.04.1} date 2026-08-17T17:57:16+0700
; FORMAT={-:-/ absolute / metric / decimal}
; #@! TF.CreationDate,2026-08-17T17:57:16+07:00
; #@! TF.GenerationSoftware,Kicad,Pcbnew,9.0.9-9.0.9~ubuntu24.04.1
; #@! TF.FileFunction,Plated,1,2,PTH
FMAT,2
METRIC
; #@! TA.AperFunction,Plated,PTH,ComponentDrill
T1C1.000
; #@! TA.AperFunction,Plated,PTH,ComponentDrill
T2C1.300
%
G90
G05
T1
X-66.04Y-22.606
X-66.04Y-32.766
X-62.23Y-17.526
X-62.23Y-27.686
X-58.42Y-22.606
X-58.42Y-27.686
X-58.42Y-32.766
X-54.61Y-22.606
X-50.8Y-27.686
X-39.37Y-10.16
X-34.29Y-10.16
X-34.29Y-25.4
X-31.75Y-25.4
X-29.21Y-25.4
X-26.67Y-25.4
X-24.13Y-25.4
X-21.59Y-25.4
X-16.51Y-25.4
X-13.97Y-25.4
X-11.43Y-25.4
X-8.89Y-25.4
X-6.35Y-10.16
T2
X-75.993Y-33.02
X-73.692Y-17.653
X-73.692Y-22.653
X-70.993Y-33.02
X-69.77Y-8.89
X-69.77Y-43.19
X-64.77Y-8.89
X-64.77Y-43.19
X-56.852Y-8.984
X-56.82Y-43.157
X-51.852Y-8.984
X-51.82Y-43.157
X-46.82Y-43.157
X-40.16Y-43.19
X-35.16Y-43.19
X-30.16Y-43.19
X-25.16Y-43.19
X-20.16Y-43.19
X-15.16Y-43.19
X-10.16Y-43.19
X-10.08Y-33.02
X-5.08Y-33.02
M30
